<svg width="163" height="27" viewBox="0 0 163 27" fill="none" xmlns="http://www.w3.org/2000/svg">
<path fill-rule="evenodd" clip-rule="evenodd" d="M0.559326 0.712234V26.3882H56.6118V0.712234H0.559326ZM24.7047 8.9992V18.1013H26.4799C27.4852 18.1013 28.0467 17.739 28.3999 17.1956C28.726 16.7428 28.8346 16.299 28.8346 13.5457C28.8346 10.8196 28.726 10.3577 28.3999 9.90488C28.0376 9.36147 27.4852 8.9992 26.4799 8.9992H24.7047ZM31.1532 20.0666C30.0301 21.1806 28.4543 21.6606 26.7516 21.6606H20.6926V5.44894H26.7516C28.4543 5.44894 30.0301 5.92895 31.1532 7.04293C33.0642 8.9358 32.8559 11.0008 32.8559 13.5548C32.8559 16.0997 33.0642 18.1737 31.1532 20.0666ZM18.5823 8.9992H14.5702V21.6515H10.558V8.9992H6.53681V5.44894H18.5914V8.9992H18.5823ZM50.2992 21.6515H46.278V13.8989L43.9595 17.902H41.3874L39.0688 13.8989V21.6606H35.0476V5.44894H38.9964L42.6644 12.5947L46.3324 5.44894H50.2811V21.6515H50.2992Z" fill="white"/>
<path fill-rule="evenodd" clip-rule="evenodd" d="M62.8792 21.6512V5.44856H73.2945V8.99883H66.6468V11.7068H72.3254V15.2571H66.6468V18.1009H73.2945V21.6512H62.8792Z" fill="white"/>
<path fill-rule="evenodd" clip-rule="evenodd" d="M75.1147 21.6512V5.44856H78.8733V18.1009H85.3036V21.6512H75.1147Z" fill="white"/>
<path fill-rule="evenodd" clip-rule="evenodd" d="M86.4902 21.6512V5.44856H96.8965V8.99883H90.2488V11.7068H95.9274V15.2571H90.2488V18.1009H96.8965V21.6512H86.4902Z" fill="white"/>
<path fill-rule="evenodd" clip-rule="evenodd" d="M103.798 21.787C102.014 21.787 100.655 21.153 99.5412 19.9666C97.9291 18.2639 97.9925 15.9816 97.9925 13.5544C97.9925 11.1181 97.9291 8.83581 99.5412 7.13313C100.655 5.95575 102.014 5.31271 103.798 5.31271C106.705 5.31271 109.042 7.01539 109.603 10.5928H105.772C105.537 9.68715 105.066 8.86298 103.816 8.86298C103.128 8.86298 102.621 9.16185 102.331 9.54224C101.987 10.0222 101.751 10.5928 101.751 13.5453C101.751 16.5069 101.987 17.0684 102.331 17.5484C102.611 17.9379 103.128 18.2277 103.816 18.2277C105.066 18.2277 105.537 17.4126 105.772 16.4979H109.603C109.042 20.0843 106.705 21.787 103.798 21.787Z" fill="white"/>
<path fill-rule="evenodd" clip-rule="evenodd" d="M117.673 8.99883V21.6512H113.905V8.99883H110.146V5.44856H121.431V8.99883H117.673Z" fill="white"/>
<path fill-rule="evenodd" clip-rule="evenodd" d="M128.505 9.01694H126.376V12.2955H128.505C129.537 12.2955 130.144 11.4985 130.144 10.6562C130.144 9.81394 129.537 9.01694 128.505 9.01694ZM130.352 21.6512L127.644 15.6193H126.376V21.6512H122.609V5.44856H128.677C132.073 5.44856 133.893 7.99352 133.893 10.6653C133.893 12.8751 132.607 14.2608 131.403 14.8948L134.709 21.6512H130.352Z" fill="white"/>
<path fill-rule="evenodd" clip-rule="evenodd" d="M135.777 21.6512V5.44856H139.545V21.6512H135.777Z" fill="white"/>
<path fill-rule="evenodd" clip-rule="evenodd" d="M147.026 21.787C145.242 21.787 143.883 21.153 142.76 19.9666C141.148 18.2639 141.211 15.9816 141.211 13.5544C141.211 11.1181 141.148 8.83581 142.76 7.13313C143.883 5.95575 145.232 5.31271 147.026 5.31271C149.924 5.31271 152.27 7.01539 152.831 10.5928H149.009C148.774 9.68715 148.294 8.86298 147.053 8.86298C146.365 8.86298 145.839 9.16185 145.568 9.54224C145.223 10.0222 144.988 10.5928 144.988 13.5453C144.988 16.5069 145.223 17.0684 145.568 17.5484C145.839 17.9379 146.365 18.2277 147.053 18.2277C148.303 18.2277 148.774 17.4126 149.009 16.4979H152.831C152.27 20.0843 149.924 21.787 147.026 21.787Z" fill="white"/>
<path d="M162.069 4.47951C162.069 6.64408 160.33 8.36487 158.111 8.36487C155.902 8.36487 154.135 6.64408 154.135 4.47951C154.135 2.31493 155.902 0.621313 158.139 0.621313C160.33 0.612256 162.069 2.31493 162.069 4.47951ZM155.123 4.47951C155.123 6.2003 156.418 7.56787 158.139 7.56787C159.814 7.59505 161.082 6.2003 161.082 4.50668C161.082 2.78589 159.814 1.4002 158.093 1.4002C156.418 1.39114 155.123 2.78589 155.123 4.47951ZM157.505 6.48106H156.608V2.61381C156.961 2.56852 157.459 2.49607 158.093 2.49607C158.827 2.49607 159.153 2.61381 159.416 2.804C159.651 2.96702 159.814 3.24778 159.814 3.62817C159.814 4.09912 159.461 4.40705 159.017 4.5429V4.58819C159.397 4.70593 159.579 5.01386 159.696 5.5301C159.814 6.11879 159.905 6.32709 159.977 6.472H159.035C158.917 6.32709 158.845 6.00105 158.727 5.5301C158.655 5.1316 158.419 4.9414 157.93 4.9414H157.505V6.48106ZM157.523 4.30743H157.948C158.447 4.30743 158.845 4.14441 158.845 3.74591C158.845 3.39269 158.582 3.15722 158.021 3.15722C157.785 3.15722 157.622 3.18439 157.523 3.2025V4.30743Z" fill="white"/>
</svg>
