<svg width="250" height="40" viewBox="0 0 250 40" fill="none" xmlns="http://www.w3.org/2000/svg">
<path fill-rule="evenodd" clip-rule="evenodd" d="M0 0.140808V39.8845H86.7633V0.140808H0ZM37.3745 12.9681V27.0572H40.1222C41.6783 27.0572 42.5475 26.4964 43.0942 25.6553C43.5989 24.9543 43.7672 24.2674 43.7672 20.0057C43.7672 15.786 43.5989 15.071 43.0942 14.37C42.5335 13.5289 41.6783 12.9681 40.1222 12.9681H37.3745ZM47.356 30.0993C45.6177 31.8236 43.1784 32.5666 40.5428 32.5666H31.1641V7.47272H40.5428C43.1784 7.47272 45.6177 8.21572 47.356 9.94005C50.314 12.87 49.9916 16.0663 49.9916 20.0197C49.9916 23.959 50.314 27.1693 47.356 30.0993ZM27.8977 12.9681H21.6873V32.5526H15.4769V12.9681H9.25251V7.47272H27.9117V12.9681H27.8977ZM76.9921 32.5526H70.7677V20.5524L67.1788 26.7488H63.1974L59.6086 20.5524V32.5666H53.3842V7.47272H59.4964L65.1741 18.5337L70.8518 7.47272H76.964V32.5526H76.9921Z" fill="#FC7D00"/>
<path fill-rule="evenodd" clip-rule="evenodd" d="M96.4644 32.5521V7.47217H112.586V12.9676H102.296V17.1593H111.086V22.6547H102.296V27.0566H112.586V32.5521H96.4644Z" fill="#FC7D00"/>
<path fill-rule="evenodd" clip-rule="evenodd" d="M115.404 32.5521V7.47217H121.222V27.0566H131.175V32.5521H115.404Z" fill="#FC7D00"/>
<path fill-rule="evenodd" clip-rule="evenodd" d="M133.012 32.5521V7.47217H149.119V12.9676H138.83V17.1593H147.619V22.6547H138.83V27.0566H149.119V32.5521H133.012Z" fill="#FC7D00"/>
<path fill-rule="evenodd" clip-rule="evenodd" d="M159.802 32.7624C157.04 32.7624 154.938 31.781 153.213 29.9446C150.718 27.309 150.816 23.7762 150.816 20.0191C150.816 16.248 150.718 12.7153 153.213 10.0797C154.938 8.25725 157.04 7.2619 159.802 7.2619C164.302 7.2619 167.919 9.89746 168.788 15.4349H162.858C162.494 14.0331 161.765 12.7573 159.83 12.7573C158.765 12.7573 157.98 13.22 157.531 13.8088C156.998 14.5518 156.634 15.4349 156.634 20.0051C156.634 24.5893 156.998 25.4585 157.531 26.2015C157.966 26.8043 158.765 27.2529 159.83 27.2529C161.765 27.2529 162.494 25.9912 162.858 24.5753H168.788C167.919 30.1268 164.302 32.7624 159.802 32.7624Z" fill="#FC7D00"/>
<path fill-rule="evenodd" clip-rule="evenodd" d="M181.279 12.9676V32.5521H175.447V12.9676H169.629V7.47217H187.097V12.9676H181.279Z" fill="#FC7D00"/>
<path fill-rule="evenodd" clip-rule="evenodd" d="M198.046 12.9956H194.751V18.0705H198.046C199.644 18.0705 200.583 16.8368 200.583 15.5331C200.583 14.2293 199.644 12.9956 198.046 12.9956ZM200.905 32.5521L196.714 23.2154H194.751V32.5521H188.919V7.47217H198.312C203.569 7.47217 206.387 11.4115 206.387 15.5471C206.387 18.9677 204.396 21.1126 202.532 22.0939L207.649 32.5521H200.905Z" fill="#FC7D00"/>
<path fill-rule="evenodd" clip-rule="evenodd" d="M209.303 32.5521V7.47217H215.135V32.5521H209.303Z" fill="#FC7D00"/>
<path fill-rule="evenodd" clip-rule="evenodd" d="M226.714 32.7624C223.953 32.7624 221.85 31.781 220.111 29.9446C217.616 27.309 217.714 23.7762 217.714 20.0191C217.714 16.248 217.616 12.7153 220.111 10.0797C221.85 8.25725 223.939 7.2619 226.714 7.2619C231.2 7.2619 234.831 9.89746 235.7 15.4349H229.784C229.42 14.0331 228.677 12.7573 226.756 12.7573C225.691 12.7573 224.878 13.22 224.457 13.8088C223.925 14.5518 223.56 15.4349 223.56 20.0051C223.56 24.5893 223.925 25.4585 224.457 26.2015C224.878 26.8043 225.691 27.2529 226.756 27.2529C228.691 27.2529 229.42 25.9912 229.784 24.5753H235.7C234.831 30.1268 231.2 32.7624 226.714 32.7624Z" fill="#FC7D00"/>
<path d="M250 5.97213C250 9.32266 247.308 11.9863 243.874 11.9863C240.453 11.9863 237.719 9.32266 237.719 5.97213C237.719 2.6216 240.453 5.56666e-05 243.916 5.56666e-05C247.308 -0.0139633 250 2.6216 250 5.97213ZM239.248 5.97213C239.248 8.63573 241.252 10.7526 243.916 10.7526C246.509 10.7946 248.472 8.63573 248.472 6.01418C248.472 3.35058 246.509 1.20568 243.846 1.20568C241.252 1.19167 239.248 3.35058 239.248 5.97213ZM242.935 9.07032H241.547V3.08422C242.093 3.01413 242.864 2.90198 243.846 2.90198C244.981 2.90198 245.486 3.08422 245.893 3.37862C246.257 3.63096 246.509 4.06555 246.509 4.65435C246.509 5.38333 245.963 5.85998 245.276 6.07026V6.14036C245.864 6.3226 246.145 6.79925 246.327 7.59833C246.509 8.50956 246.65 8.83199 246.762 9.0563H245.304C245.121 8.83199 245.009 8.32731 244.827 7.59833C244.715 6.98149 244.35 6.68709 243.593 6.68709H242.935V9.07032ZM242.963 5.70577H243.621C244.393 5.70577 245.009 5.45343 245.009 4.83659C245.009 4.28985 244.603 3.92536 243.734 3.92536C243.369 3.92536 243.117 3.96742 242.963 3.99546V5.70577Z" fill="#FC7D00"/>
</svg>
