<svg id="location-i" viewBox="0 0 16 21" fill="none" xmlns="http://www.w3.org/2000/svg">
<path d="M15.0106 7.77225C15.0106 11.6378 8.0013 19 8.0013 19C8.0013 19 1 11.6779 1 7.77225C1.06148 5.95535 1.82647 4.23341 3.13351 2.96986C4.44054 1.7063 6.18737 1 8.00531 1C9.82325 1 11.5701 1.7063 12.8771 2.96986C14.1842 4.23341 14.9491 5.95535 15.0106 7.77225V7.77225Z" stroke="#4D4D4D" stroke-width="1.5" stroke-miterlimit="10"/>
<path d="M7.99343 11.1727C9.84042 11.1727 11.3377 9.67538 11.3377 7.82839C11.3377 5.98141 9.84042 4.48413 7.99343 4.48413C6.14645 4.48413 4.64917 5.98141 4.64917 7.82839C4.64917 9.67538 6.14645 11.1727 7.99343 11.1727Z" fill="#4D4D4D"/>
</svg>
