<svg id="search-i" width="23" height="22" viewBox="0 0 23 22" fill="none" xmlns="http://www.w3.org/2000/svg">
<path d="M17.4799 9.23117C17.4817 10.8616 16.9997 12.456 16.0949 13.8124C15.1902 15.1688 13.9034 16.2263 12.3973 16.851C10.8913 17.4758 9.23382 17.6397 7.6346 17.3221C6.03538 17.0044 4.56635 16.2194 3.41344 15.0665C2.26053 13.9136 1.47556 12.4446 1.1579 10.8454C0.840242 9.24613 1.00417 7.58863 1.62893 6.08262C2.25368 4.5766 3.31119 3.28977 4.66759 2.38502C6.024 1.48027 7.61833 0.99826 9.24879 1C11.4318 1 13.5255 1.86721 15.0691 3.41085C16.6127 4.95449 17.4799 7.04813 17.4799 9.23117V9.23117Z" stroke="#4D4D4D" stroke-width="2" stroke-miterlimit="10"/>
<path d="M15.1775 14.9391L21.4413 21" stroke="#4D4D4D" stroke-width="2" stroke-miterlimit="10"/>
</svg>
