<svg  id="phone-i" viewBox="0 0 19 19" fill="none" xmlns="http://www.w3.org/2000/svg">
<path d="M18.402 13.6479L13.6414 12.3178C13.6414 12.3178 11.5553 13.905 11.3851 14.6705C11.3649 14.7592 11.2899 14.8094 11.1831 14.839C8.49123 13.37 6.24652 11.1474 4.72023 8.44597C5.42711 8.12085 6.59275 5.78296 6.59275 5.78296L4.51538 1.19582C4.51538 1.19582 3.00352 0.814552 2.47264 1.11603C1.00117 1.95247 0 3.6017 0 5.49921C0 6.34452 0.199082 7.14255 0.55108 7.84007C2.72943 13.2489 7.30829 17.3838 12.9287 18.8498C12.946 18.8557 12.9691 18.8557 12.9951 18.8557C13.6327 19.0153 14.3165 19.0478 15.009 18.9266C16.8353 18.6104 18.2549 17.3247 18.8146 15.6991C19.0223 15.108 18.402 13.6479 18.402 13.6479Z" fill="#4D4D4D"/>
<path d="M9 5C9 5 11 5 12.5 6.5C14 8 14 10 14 10" stroke="#4D4D4D" stroke-width="2"/>
<path d="M9 1C9 1 12.6 1 15.3 3.7C18 6.4 18 10 18 10" stroke="#4D4D4D" stroke-width="2"/>
</svg>
